<svg xmlns="http://www.w3.org/2000/svg" fill="none" viewBox="0 0 576 576">
  <g clip-path="url(#a)">
    <path fill="#33D6A6" d="M0 0h576v576H0z" />
    <path
      fill="#fff"
      d="M287.986.95C129.418.95.867 129.497.867 288.065c0 158.575 128.551 287.112 287.119 287.112 158.585 0 287.123-128.537 287.123-287.112C575.109 129.507 446.575.95 287.986.95Z"
    />
    <path
      fill="url(#b)"
      fill-opacity=".3"
      d="M287.986.95C129.418.95.867 129.497.867 288.065c0 158.575 128.551 287.112 287.119 287.112 158.585 0 287.123-128.537 287.123-287.112C575.109 129.507 446.575.95 287.986.95Z"
    />
    <path
      fill="#338EDA"
      d="M419.68 415.04c5.12-8.48 2.56-19.52-5.92-24.64-75.68-46.24-169.44-56.96-278.88-32-9.6 2.24-15.68 11.84-13.44 21.44 2.24 9.6 11.84 15.68 21.44 13.44 100-22.88 184.8-13.44 252.16 27.68 8.48 5.12 19.52 2.56 24.64-5.92Z"
    />
    <path
      fill="#F1C40F"
      d="M454.72 336.96c6.56-10.56 3.2-24.32-7.36-30.72-88.48-54.56-218.24-69.92-322.4-38.24-11.84 3.68-18.56 16-14.88 27.84 3.52 11.84 16.16 18.56 28 14.88 91.36-27.68 208.96-13.92 286.08 33.44 10.56 6.56 24.32 3.2 30.72-7.36l-.16.16Z"
    />
    <path
      fill="#EC3750"
      d="M457.76 255.52c12.8 7.52 29.28 3.36 36.8-9.44 7.52-12.8 3.36-29.28-9.44-36.8-106.4-63.2-275.04-69.28-376.48-38.4-14.24 4.32-22.24 19.36-17.92 33.44 4.32 14.24 19.36 22.24 33.44 17.92 88.32-26.88 240.96-21.76 333.6 33.28Z"
    />
  </g>
  <defs>
    <radialGradient
      id="b"
      cx="0"
      cy="0"
      r="1"
      gradientTransform="rotate(90 -.095 287.968) scale(287)"
      gradientUnits="userSpaceOnUse"
    >
      <stop stop-color="#fff" />
      <stop offset=".905" stop-color="#fff" />
      <stop offset="1" stop-color="#4EB093" />
    </radialGradient>
    <clipPath id="a"><path fill="#fff" d="M0 0h576v576H0z" /></clipPath>
  </defs>
</svg>
